{
  "accessors": [
    {
      "bufferView": 2,
      "componentType": 5126,
      "count": 41400,
      "max": [
        6.9276704788208008,
        -0.15041732788085938,
        3.6275029182434082
      ],
      "min": [
        -8.7104377746582031,
        -10.235340118408203,
        -6.660120964050293
      ],
      "type": "VEC3"
    },
    {
      "bufferView": 2,
      "byteOffset": 496800,
      "componentType": 5126,
      "count": 41400,
      "max": [
        0.9999423623085022,
        0.99997997283935547,
        0.9999920129776001
      ],
      "min": [
        -0.99995505809783936,
        -0.99999898672103882,
        -0.99995416402816772
      ],
      "type": "VEC3"
    },
    {
      "bufferView": 3,
      "componentType": 5126,
      "count": 41400,
      "max": [
        1,
        0.99999988079071045,
        0.97005808353424072,
        1
      ],
      "min": [
        -1,
        -0.99999994039535522,
        -0.98135137557983398,
        -1
      ],
      "type": "VEC4"
    },
    {
      "bufferView": 3,
      "byteOffset": 662400,
      "componentType": 5126,
      "count": 41400,
      "max": [
        0.80784302949905396,
        0.83529400825500488,
        0.89019602537155151,
        1
      ],
      "min": [
        0,
        0,
        0,
        1
      ],
      "type": "VEC4"
    },
    {
      "bufferView": 1,
      "componentType": 5126,
      "count": 41400,
      "max": [
        0.99914002418518066,
        0.99950599670410156
      ],
      "min": [
        0.00049800000851973891,
        0.00074200000381097198
      ],
      "type": "VEC2"
    },
    {
      "bufferView": 0,
      "componentType": 5125,
      "count": 196482,
      "max": [
        41399
      ],
      "min": [
        0
      ],
      "type": "SCALAR"
    },
    {
      "bufferView": 2,
      "byteOffset": 993600,
      "componentType": 5126,
      "count": 19239,
      "max": [
        6.9927244186401367,
        -0.20276260375976562,
        2.660027027130127
      ],
      "min": [
        -3.3838796615600586,
        -10.253303527832031,
        -6.1105775833129883
      ],
      "type": "VEC3"
    },
    {
      "bufferView": 2,
      "byteOffset": 1224468,
      "componentType": 5126,
      "count": 19239,
      "max": [
        0.99996000528335571,
        0.70145541429519653,
        0.99791133403778076
      ],
      "min": [
        -0.99995315074920654,
        -1,
        -0.95458835363388062
      ],
      "type": "VEC3"
    },
    {
      "bufferView": 3,
      "byteOffset": 1324800,
      "componentType": 5126,
      "count": 19239,
      "max": [
        1,
        1,
        0.68391448259353638,
        -1
      ],
      "min": [
        -0.99998098611831665,
        -1,
        -0.98756980895996094,
        -1
      ],
      "type": "VEC4"
    },
    {
      "bufferView": 3,
      "byteOffset": 1632624,
      "componentType": 5126,
      "count": 19239,
      "max": [
        0.79607802629470825,
        0.81568598747253418,
        0.84705901145935059,
        1
      ],
      "min": [
        0,
        0,
        0,
        1
      ],
      "type": "VEC4"
    },
    {
      "bufferView": 1,
      "byteOffset": 331200,
      "componentType": 5126,
      "count": 19239,
      "max": [
        1.9991929531097412,
        0.57631999254226685
      ],
      "min": [
        1.0006279945373535,
        0.0015620000194758177
      ],
      "type": "VEC2"
    },
    {
      "bufferView": 0,
      "byteOffset": 785928,
      "componentType": 5125,
      "count": 103518,
      "max": [
        19238
      ],
      "min": [
        0
      ],
      "type": "SCALAR"
    }
  ],
  "asset": {
    "extras": {
      "author": "fhernand (https://sketchfab.com/fhernand)",
      "license": "CC-BY-4.0 (http://creativecommons.org/licenses/by/4.0/)",
      "source": "https://sketchfab.com/models/572ab6dc598d47b393fb9a0ba146e8d1",
      "title": "Truck"
    },
    "generator": "Sketchfab-3.18.6",
    "version": "2.0"
  },
  "bufferViews": [
    {
      "buffer": 0,
      "byteLength": 1200000,
      "byteOffset": 0,
      "name": "floatBufferViews",
      "target": 34963
    },
    {
      "buffer": 0,
      "byteLength": 485112,
      "byteOffset": 1200000,
      "byteStride": 8,
      "name": "floatBufferViews",
      "target": 34962
    },
    {
      "buffer": 0,
      "byteLength": 1455336,
      "byteOffset": 1685112,
      "byteStride": 12,
      "name": "floatBufferViews",
      "target": 34962
    },
    {
      "buffer": 0,
      "byteLength": 1940448,
      "byteOffset": 3140448,
      "byteStride": 16,
      "name": "floatBufferViews",
      "target": 34962
    }
  ],
  "buffers": [
    {
      "byteLength": 5080896,
      "uri": "scene.bin"
    }
  ],
  "images": [
    {
      "uri": "textures/mesh_Material_u2_v1_baseColor.png"
    },
    {
      "uri": "textures/mesh_Material_u1_v1_baseColor.png"
    }
  ],
  "materials": [
    {
      "doubleSided": true,
      "emissiveFactor": [
        0,
        0,
        0
      ],
      "name": "mesh_Material_u1_v1",
      "pbrMetallicRoughness": {
        "baseColorFactor": [
          1,
          1,
          1,
          1
        ],
        "baseColorTexture": {
          "index": 1,
          "texCoord": 0
        },
        "metallicFactor": 0,
        "roughnessFactor": 0.59999999999999998
      }
    },
    {
      "doubleSided": true,
      "emissiveFactor": [
        0,
        0,
        0
      ],
      "name": "mesh_Material_u2_v1",
      "pbrMetallicRoughness": {
        "baseColorFactor": [
          1,
          1,
          1,
          1
        ],
        "baseColorTexture": {
          "index": 0,
          "texCoord": 0
        },
        "metallicFactor": 0,
        "roughnessFactor": 0.59999999999999998
      }
    }
  ],
  "meshes": [
    {
      "primitives": [
        {
          "attributes": {
            "COLOR_0": 3,
            "NORMAL": 1,
            "POSITION": 0,
            "TANGENT": 2,
            "TEXCOORD_0": 4
          },
          "indices": 5,
          "material": 0,
          "mode": 4
        }
      ]
    },
    {
      "primitives": [
        {
          "attributes": {
            "COLOR_0": 9,
            "NORMAL": 7,
            "POSITION": 6,
            "TANGENT": 8,
            "TEXCOORD_0": 10
          },
          "indices": 11,
          "material": 1,
          "mode": 4
        }
      ]
    }
  ],
  "nodes": [
    {
      "children": [
        1
      ],
      "name": "RootNode (gltf orientation matrix)",
      "rotation": [
        -0.70710678118654746,
        -0,
        -0,
        0.70710678118654757
      ]
    },
    {
      "children": [
        2
      ],
      "matrix": [
        1,
        0,
        0,
        0,
        0,
        0,
        -1,
        0,
        0,
        1,
        0,
        0,
        0,
        -3.6855432987213135,
        -6.7180404663085938,
        1
      ],
      "name": "RootNode (model correction matrix)"
    },
    {
      "children": [
        3,
        4
      ],
      "name": "mesh.obj.cleaner.gles"
    },
    {
      "mesh": 0,
      "name": ""
    },
    {
      "mesh": 1,
      "name": ""
    }
  ],
  "samplers": [
    {
      "magFilter": 9729,
      "minFilter": 9987,
      "wrapS": 10497,
      "wrapT": 10497
    }
  ],
  "scene": 0,
  "scenes": [
    {
      "name": "OSG_Scene",
      "nodes": [
        0
      ]
    }
  ],
  "textures": [
    {
      "sampler": 0,
      "source": 0
    },
    {
      "sampler": 0,
      "source": 1
    }
  ]
}

